<?xml version="1.0" encoding="utf-8"?>
<!-- Uploaded to: SVG Repo, www.svgrepo.com, Generator: SVG Repo Mixer Tools -->
<svg xmlns="http://www.w3.org/2000/svg" xmlns:xlink="http://www.w3.org/1999/xlink" version="1.1" id="Capa_1"  viewBox="-275 367 60 60" xml:space="preserve" width="512" height="512">
<style type="text/css">
	.st0{fill:#FFFFFF;fill-opacity:0;}
	.st1{fill:#ECF4F7;}
	.st2{fill:#FF7474;}
	.st3{fill:#80D6FA;}
	.st4{fill:#AAB1BA;}
	.st5{fill:#51565F;}
</style>
<title>baggage-claim</title>
<desc>Created with Sketch.</desc>
<g id="Travel">
	
	<g id="baggage-claim">
		<g id="fill" transform="translate(1.000000, 1.000000)">
			<path id="Combined-Shape" class="st1" d="M-253,413c2.2,0,4,1.8,4,4s-1.8,4-4,4s-4-1.8-4-4S-255.2,413-253,413z M-267,413     c2.2,0,4,1.8,4,4s-1.8,4-4,4s-4-1.8-4-4S-269.2,413-267,413z M-225,413c2.2,0,4,1.8,4,4s-1.8,4-4,4s-4-1.8-4-4     S-227.2,413-225,413z M-239,413c2.2,0,4,1.8,4,4s-1.8,4-4,4s-4-1.8-4-4S-241.2,413-239,413z"/>
			<polygon id="Fill-3" class="st2" points="-251,385 -251,393 -259,393 -259,385 -255,381    "/>
			<polygon id="Fill-5" class="st1" points="-255,375 -255,381 -259,385 -259,375    "/>
			<path id="Combined-Shape_1_" class="st3" d="M-259,393v12h-6c-2.2,0-4-1.8-4-4v-22c0-2.2,1.8-4,4-4h6v10V393z M-223,379v22     c0,2.2-1.8,4-4,4h-6v-30h6C-224.8,375-223,376.8-223,379z"/>
			<path id="Fill-11" class="st4" d="M-237,371v4h-4v-3c0-0.5-0.4-1-1-1h-8c-0.6,0-1,0.5-1,1v3h-3h-1v-4c0-2.2,1.8-4,4-4h10     C-238.8,367-237,368.8-237,371"/>
			<polygon id="Fill-15" class="st1" points="-233,375 -233,405 -259,405 -259,393 -251,393 -251,385 -255,381 -255,375 -254,375      -251,375 -241,375 -237,375    "/>
			<path id="Fill-19" class="st4" d="M-263,417c0-2.2-1.8-4-4-4s-4,1.8-4,4s1.8,4,4,4S-263,419.2-263,417L-263,417z M-249,417     c0-2.2-1.8-4-4-4s-4,1.8-4,4s1.8,4,4,4S-249,419.2-249,417L-249,417z M-235,417c0-2.2-1.8-4-4-4s-4,1.8-4,4s1.8,4,4,4     S-235,419.2-235,417L-235,417z M-221,417c0-2.2-1.8-4-4-4s-4,1.8-4,4s1.8,4,4,4S-221,419.2-221,417L-221,417z M-225,409     c4.4,0,8,3.6,8,8s-3.6,8-8,8h-42c-4.4,0-8-3.6-8-8s3.6-8,8-8H-225z"/>
		</g>
		<path class="st5" d="M-224,426.5h-42c-4.7,0-8.5-3.8-8.5-8.5s3.8-8.5,8.5-8.5h42c4.7,0,8.5,3.8,8.5,8.5S-219.3,426.5-224,426.5z     M-266,410.5c-4.1,0-7.5,3.4-7.5,7.5s3.4,7.5,7.5,7.5h42c4.1,0,7.5-3.4,7.5-7.5s-3.4-7.5-7.5-7.5H-266z M-224,422.5    c-2.5,0-4.5-2-4.5-4.5s2-4.5,4.5-4.5s4.5,2,4.5,4.5S-221.5,422.5-224,422.5z M-224,414.5c-1.9,0-3.5,1.6-3.5,3.5s1.6,3.5,3.5,3.5    s3.5-1.6,3.5-3.5S-222.1,414.5-224,414.5z M-238,422.5c-2.5,0-4.5-2-4.5-4.5s2-4.5,4.5-4.5s4.5,2,4.5,4.5S-235.5,422.5-238,422.5z     M-238,414.5c-1.9,0-3.5,1.6-3.5,3.5s1.6,3.5,3.5,3.5s3.5-1.6,3.5-3.5S-236.1,414.5-238,414.5z M-252,422.5c-2.5,0-4.5-2-4.5-4.5    s2-4.5,4.5-4.5s4.5,2,4.5,4.5S-249.5,422.5-252,422.5z M-252,414.5c-1.9,0-3.5,1.6-3.5,3.5s1.6,3.5,3.5,3.5s3.5-1.6,3.5-3.5    S-250.1,414.5-252,414.5z M-266,422.5c-2.5,0-4.5-2-4.5-4.5s2-4.5,4.5-4.5s4.5,2,4.5,4.5S-263.5,422.5-266,422.5z M-266,414.5    c-1.9,0-3.5,1.6-3.5,3.5s1.6,3.5,3.5,3.5s3.5-1.6,3.5-3.5S-264.1,414.5-266,414.5z M-226,406.5h-38c-2.5,0-4.5-2-4.5-4.5v-22    c0-2.5,2-4.5,4.5-4.5h6c0.3,0,0.5,0.2,0.5,0.5v4c0,0.3-0.2,0.5-0.5,0.5s-0.5-0.2-0.5-0.5v-3.5h-5.5c-1.9,0-3.5,1.6-3.5,3.5v22    c0,1.9,1.6,3.5,3.5,3.5h5.5V398c0-0.3,0.2-0.5,0.5-0.5s0.5,0.2,0.5,0.5v7.5h25v-29H-253c-0.3,0-0.5-0.2-0.5-0.5s0.2-0.5,0.5-0.5    h2.5V373c0-0.8,0.7-1.5,1.5-1.5h8c0.8,0,1.5,0.7,1.5,1.5v2.5h3V372c0-1.9-1.6-3.5-3.5-3.5h-10c-1.9,0-3.5,1.6-3.5,3.5v10    c0,0.1-0.1,0.3-0.1,0.4l-3.9,3.9v7.3h7v-7.3l-1.4-1.4c-0.2-0.2-0.2-0.5,0-0.7s0.5-0.2,0.7,0l1.5,1.5c0.1,0.1,0.1,0.2,0.1,0.4v8    c0,0.3-0.2,0.5-0.5,0.5h-8c-0.3,0-0.5-0.2-0.5-0.5v-8c0-0.1,0.1-0.3,0.1-0.4l3.9-3.9V372c0-2.5,2-4.5,4.5-4.5h10    c2.5,0,4.5,2,4.5,4.5v3.5h3.5c0.3,0,0.5,0.2,0.5,0.5v29.5h5.5c1.9,0,3.5-1.6,3.5-3.5v-22c0-1.9-1.6-3.5-3.5-3.5h-2    c-0.3,0-0.5-0.2-0.5-0.5s0.2-0.5,0.5-0.5h2c2.5,0,4.5,2,4.5,4.5v22C-221.5,404.5-223.5,406.5-226,406.5z M-249.5,375.5h9V373    c0-0.3-0.2-0.5-0.5-0.5h-8c-0.3,0-0.5,0.2-0.5,0.5V375.5z M-254,391.5c-0.8,0-1.5-0.7-1.5-1.5s0.7-1.5,1.5-1.5s1.5,0.7,1.5,1.5    S-253.2,391.5-254,391.5z M-254,389.5c-0.3,0-0.5,0.2-0.5,0.5s0.2,0.5,0.5,0.5s0.5-0.2,0.5-0.5S-253.7,389.5-254,389.5z"/>
	</g>
</g>
</svg>